<svg id="b32f24aa-d247-4134-84fa-d8d964b7e02f" data-name="Layer 1" xmlns="http://www.w3.org/2000/svg" xmlns:xlink="http://www.w3.org/1999/xlink" viewBox="0 0 310.61 409.12"><defs><style>.bd95ee32-876e-45f4-96ba-19d410230a5c{fill:#004e7f;}.afe1ee4e-8b1d-4770-ac5b-ab378d64ace3{fill:#009fdb;}.a09d149a-0d04-476e-a8d9-ca141ae2b2d4,.a617767f-66bc-4942-81c7-bc05ea38e4b4{fill:#fff;}.a617767f-66bc-4942-81c7-bc05ea38e4b4{stroke:#0085bb;stroke-miterlimit:10;}.f374b9a8-1ac0-4b3a-bc93-a35b408091dd{fill:url(#fac94114-3933-405c-9f24-d25ffeb5b329);}</style><linearGradient id="fac94114-3933-405c-9f24-d25ffeb5b329" x1="161.23" y1="108.77" x2="161.23" y2="323.39" gradientUnits="userSpaceOnUse"><stop offset="0.06" stop-color="#009eda"/><stop offset="0.19" stop-color="#0086be"/><stop offset="0.35" stop-color="#006da3"/><stop offset="0.52" stop-color="#005c8f"/><stop offset="0.68" stop-color="#005183"/><stop offset="0.85" stop-color="#004e7f"/></linearGradient></defs><path class="bd95ee32-876e-45f4-96ba-19d410230a5c" d="M315.61,257.2V178.41a39.23,39.23,0,0,0-.4-5.56V171.4H315a39.35,39.35,0,0,0-38.72-32.35H44.36A39.35,39.35,0,0,0,5.64,171.4H5V292.72h.41c0,.32,0,.65,0,1h0c0,67.28,61.77,121.82,138,121.82h34.29c76.19,0,138-54.54,138-121.82h0q0-4.71-.4-9.33V262.76A39.23,39.23,0,0,0,315.61,257.2Z" transform="translate(-5 -6.39)"/><path class="afe1ee4e-8b1d-4770-ac5b-ab378d64ace3" d="M279.68,270V171.4H40.62V277.28h.32c0,.29,0,.57,0,.86h0A106.32,106.32,0,0,0,147.25,384.45h26.42A106.32,106.32,0,0,0,280,278.14h0C280,275.4,279.89,272.68,279.68,270Z" transform="translate(-5 -6.39)"/><path class="a617767f-66bc-4942-81c7-bc05ea38e4b4" d="M184.49,240.72A24.18,24.18,0,1,0,147.6,261.3v22.35a12.91,12.91,0,0,0,12.91,12.91h0a12.91,12.91,0,0,0,12.91-12.91V261A24.16,24.16,0,0,0,184.49,240.72Z" transform="translate(-5 -6.39)"/><path class="f374b9a8-1ac0-4b3a-bc93-a35b408091dd" d="M169.25,6.39h-16a92,92,0,0,0-92,92v170a92,92,0,0,0,83.58,91.56v19.3l40-35.82-40-33.92v19.19A63.44,63.44,0,0,1,92.4,266.2V102.49a63.43,63.43,0,0,1,63.43-63.43h9.57a63.43,63.43,0,0,1,63.43,63.43V266.2a63.16,63.16,0,0,1-14.93,40.86l23.27,23.26a91.63,91.63,0,0,0,24-62v-170A91.94,91.94,0,0,0,169.25,6.39Z" transform="translate(-5 -6.39)"/><polygon class="a09d149a-0d04-476e-a8d9-ca141ae2b2d4" points="179.91 336.97 179.88 337 179.91 337.02 179.91 336.97"/></svg>